<svg width="211" height="135" viewBox="0 0 211 135" fill="none" xmlns="http://www.w3.org/2000/svg">
<path d="M35.39 104V55.14H58.49C60.7767 55.14 62.83 55.5367 64.65 56.33C66.47 57.0767 68.01 58.1267 69.27 59.48C70.5767 60.8333 71.58 62.49 72.28 64.45C72.98 66.3633 73.33 68.4633 73.33 70.75C73.33 73.0833 72.98 75.2067 72.28 77.12C71.58 79.0333 70.5767 80.6667 69.27 82.02C68.01 83.3733 66.47 84.4467 64.65 85.24C62.83 85.9867 60.7767 86.36 58.49 86.36H46.03V104H35.39ZM46.03 77.12H57.23C58.8167 77.12 60.0533 76.7233 60.94 75.93C61.8733 75.09 62.34 73.8767 62.34 72.29V69.21C62.34 67.6233 61.8733 66.4333 60.94 65.64C60.0533 64.8 58.8167 64.38 57.23 64.38H46.03V77.12ZM86.6475 63.33C84.5475 63.33 83.0075 62.8633 82.0275 61.93C81.0942 60.95 80.6275 59.7133 80.6275 58.22V56.68C80.6275 55.1867 81.0942 53.9733 82.0275 53.04C83.0075 52.06 84.5475 51.57 86.6475 51.57C88.7475 51.57 90.2642 52.06 91.1975 53.04C92.1775 53.9733 92.6675 55.1867 92.6675 56.68V58.22C92.6675 59.7133 92.1775 60.95 91.1975 61.93C90.2642 62.8633 88.7475 63.33 86.6475 63.33ZM81.4675 67.25H91.8275V104H81.4675V67.25ZM169.256 104.84C166.456 104.84 163.959 104.397 161.766 103.51C159.572 102.577 157.706 101.293 156.166 99.66C154.672 97.98 153.529 95.95 152.736 93.57C151.989 91.19 151.616 88.53 151.616 85.59C151.616 82.6967 151.989 80.0833 152.736 77.75C153.482 75.37 154.579 73.34 156.026 71.66C157.519 69.98 159.339 68.6967 161.486 67.81C163.632 66.8767 166.082 66.41 168.836 66.41C171.869 66.41 174.459 66.9233 176.606 67.95C178.799 68.9767 180.572 70.3533 181.926 72.08C183.326 73.8067 184.329 75.8133 184.936 78.1C185.589 80.34 185.916 82.6967 185.916 85.17V88.25H162.326V88.81C162.326 91.2367 162.979 93.1733 164.286 94.62C165.592 96.02 167.646 96.72 170.446 96.72C172.592 96.72 174.342 96.3 175.696 95.46C177.049 94.5733 178.309 93.5233 179.476 92.31L184.656 98.75C183.022 100.663 180.876 102.157 178.216 103.23C175.602 104.303 172.616 104.84 169.256 104.84ZM169.046 74.04C166.946 74.04 165.289 74.74 164.076 76.14C162.909 77.4933 162.326 79.3133 162.326 81.6V82.16H175.206V81.53C175.206 79.29 174.692 77.4933 173.666 76.14C172.686 74.74 171.146 74.04 169.046 74.04ZM204.222 104C200.676 104 198.062 103.137 196.382 101.41C194.749 99.6833 193.932 97.1867 193.932 93.92V52.2H204.292V95.95H208.912V104H204.222Z" fill="black"/>
<rect x="7.26371" y="72.1639" width="92.6123" height="78.548" transform="rotate(-44.5 7.26371 72.1639)" stroke="url(#paint0_linear_8_12)" stroke-width="9"/>
<path d="M71.3259 125.605L117.726 71.6045L93.7259 21.6045H116.126L132.126 59.2045H133.126L163.526 21.6045H186.726L141.526 74.2045L166.926 125.605H144.326L127.126 86.8045H126.126L94.5259 125.605H71.3259Z" fill="url(#paint1_linear_8_12)"/>
<defs>
<linearGradient id="paint0_linear_8_12" x1="51.7062" y1="72.1084" x2="51.7062" y2="159.656" gradientUnits="userSpaceOnUse">
<stop stop-color="#7857FF"/>
<stop offset="1" stop-color="#483499"/>
</linearGradient>
<linearGradient id="paint1_linear_8_12" x1="123.926" y1="3.60452" x2="123.926" y2="96.6045" gradientUnits="userSpaceOnUse">
<stop stop-color="#483499"/>
<stop offset="1" stop-color="#7857FF"/>
</linearGradient>
</defs>
</svg>
