<svg width="124" height="69" viewBox="0 0 124 69" fill="none" xmlns="http://www.w3.org/2000/svg">
<rect width="124" height="69" fill="none"/>
<g id="Group 2">
<g id="Group 1">
<g id="Frame 1">
<g id="Component 1">
<path id="x" d="M39.456 57L43.728 50.64L39.552 44.472H43.056L45.648 48.624H45.744L48.312 44.472H51.576L47.328 50.688L51.6 57H48.096L45.456 52.68H45.36L42.72 57H39.456Z" fill="#7857FF"/>
<rect id="Rectangle 1" x="26.8501" y="2.08978" width="43.1518" height="43.0539" transform="rotate(35.1067 26.8501 2.08978)" stroke="#7857FF" stroke-width="3"/>
</g>
</g>
</g>
<g id="Pi elMind">
<path d="M18.968 57V40.248H26.504C27.272 40.248 27.96 40.376 28.568 40.632C29.192 40.872 29.72 41.224 30.152 41.688C30.584 42.136 30.912 42.68 31.136 43.32C31.36 43.96 31.472 44.664 31.472 45.432C31.472 46.216 31.36 46.928 31.136 47.568C30.912 48.192 30.584 48.736 30.152 49.2C29.72 49.648 29.192 50 28.568 50.256C27.96 50.496 27.272 50.616 26.504 50.616H22.136V57H18.968ZM22.136 47.88H26.216C26.824 47.88 27.304 47.72 27.656 47.4C28.008 47.064 28.184 46.592 28.184 45.984V44.88C28.184 44.272 28.008 43.808 27.656 43.488C27.304 43.168 26.824 43.008 26.216 43.008H22.136V47.88ZM35.687 42.648C35.047 42.648 34.583 42.504 34.295 42.216C34.023 41.928 33.887 41.56 33.887 41.112V40.632C33.887 40.184 34.023 39.816 34.295 39.528C34.583 39.24 35.047 39.096 35.687 39.096C36.311 39.096 36.767 39.24 37.055 39.528C37.343 39.816 37.487 40.184 37.487 40.632V41.112C37.487 41.56 37.343 41.928 37.055 42.216C36.767 42.504 36.311 42.648 35.687 42.648ZM34.151 44.472H37.223V57H34.151V44.472ZM57.1916 57.288C56.2636 57.288 55.4316 57.136 54.6956 56.832C53.9756 56.512 53.3596 56.072 52.8476 55.512C52.3516 54.936 51.9676 54.248 51.6956 53.448C51.4236 52.632 51.2876 51.72 51.2876 50.712C51.2876 49.72 51.4156 48.824 51.6716 48.024C51.9436 47.224 52.3276 46.544 52.8236 45.984C53.3196 45.408 53.9276 44.968 54.6476 44.664C55.3676 44.344 56.1836 44.184 57.0956 44.184C58.0716 44.184 58.9196 44.352 59.6396 44.688C60.3596 45.024 60.9516 45.48 61.4156 46.056C61.8796 46.632 62.2236 47.304 62.4476 48.072C62.6876 48.824 62.8076 49.632 62.8076 50.496V51.504H54.4796V51.816C54.4796 52.728 54.7356 53.464 55.2476 54.024C55.7596 54.568 56.5196 54.84 57.5276 54.84C58.2956 54.84 58.9196 54.68 59.3996 54.36C59.8956 54.04 60.3356 53.632 60.7196 53.136L62.3756 54.984C61.8636 55.704 61.1596 56.272 60.2636 56.688C59.3836 57.088 58.3596 57.288 57.1916 57.288ZM57.1436 46.488C56.3276 46.488 55.6796 46.76 55.1996 47.304C54.7196 47.848 54.4796 48.552 54.4796 49.416V49.608H59.6156V49.392C59.6156 48.528 59.3996 47.832 58.9676 47.304C58.5516 46.76 57.9436 46.488 57.1436 46.488ZM68.5824 57C67.5264 57 66.7504 56.736 66.2544 56.208C65.7584 55.68 65.5104 54.936 65.5104 53.976V39.24H68.5824V54.552H70.2384V57H68.5824Z" fill="black"/>
<path d="M85.4051 44.976H85.3091L84.0131 47.64L80.5811 53.976L77.1491 47.64L75.8531 44.976H75.7571V57H72.7571V40.248H76.3331L80.6291 48.432H80.7251L84.9731 40.248H88.4051V57H85.4051V44.976ZM93.6948 42.648C93.0548 42.648 92.5908 42.504 92.3028 42.216C92.0308 41.928 91.8948 41.56 91.8948 41.112V40.632C91.8948 40.184 92.0308 39.816 92.3028 39.528C92.5908 39.24 93.0548 39.096 93.6948 39.096C94.3188 39.096 94.7748 39.24 95.0628 39.528C95.3508 39.816 95.4948 40.184 95.4948 40.632V41.112C95.4948 41.56 95.3508 41.928 95.0628 42.216C94.7748 42.504 94.3188 42.648 93.6948 42.648ZM92.1588 44.472H95.2308V57H92.1588V44.472ZM98.7916 57V44.472H101.864V46.56H101.984C102.24 45.888 102.64 45.328 103.184 44.88C103.744 44.416 104.512 44.184 105.488 44.184C106.784 44.184 107.776 44.608 108.464 45.456C109.152 46.304 109.496 47.512 109.496 49.08V57H106.424V49.392C106.424 48.496 106.264 47.824 105.944 47.376C105.624 46.928 105.096 46.704 104.36 46.704C104.04 46.704 103.728 46.752 103.424 46.848C103.136 46.928 102.872 47.056 102.632 47.232C102.408 47.392 102.224 47.6 102.08 47.856C101.936 48.096 101.864 48.384 101.864 48.72V57H98.7916ZM120.677 54.912H120.557C120.333 55.632 119.909 56.208 119.285 56.64C118.661 57.072 117.933 57.288 117.101 57.288C115.517 57.288 114.301 56.72 113.453 55.584C112.621 54.448 112.205 52.824 112.205 50.712C112.205 48.616 112.621 47.008 113.453 45.888C114.301 44.752 115.517 44.184 117.101 44.184C117.933 44.184 118.661 44.4 119.285 44.832C119.909 45.248 120.333 45.816 120.557 46.536H120.677V39.24H123.749V57H120.677V54.912ZM118.085 54.744C118.821 54.744 119.437 54.568 119.933 54.216C120.429 53.864 120.677 53.36 120.677 52.704V48.72C120.677 48.112 120.429 47.624 119.933 47.256C119.437 46.888 118.821 46.704 118.085 46.704C117.285 46.704 116.637 46.976 116.141 47.52C115.661 48.048 115.421 48.76 115.421 49.656V51.816C115.421 52.712 115.661 53.424 116.141 53.952C116.637 54.48 117.285 54.744 118.085 54.744Z" fill="#606C80"/>
</g>
</g>
<line id="Line 1" x1="74.26" y1="57" x2="74.26" y2="69" stroke="#606C80" stroke-width="3"/>
</svg>
