<svg width="209" height="134" viewBox="0 0 209 134" fill="none" xmlns="http://www.w3.org/2000/svg">
<path d="M33.39 103V54.14H56.49C58.7767 54.14 60.83 54.5367 62.65 55.33C64.47 56.0767 66.01 57.1267 67.27 58.48C68.5767 59.8333 69.58 61.49 70.28 63.45C70.98 65.3633 71.33 67.4633 71.33 69.75C71.33 72.0833 70.98 74.2067 70.28 76.12C69.58 78.0333 68.5767 79.6667 67.27 81.02C66.01 82.3733 64.47 83.4467 62.65 84.24C60.83 84.9867 58.7767 85.36 56.49 85.36H44.03V103H33.39ZM44.03 76.12H55.23C56.8167 76.12 58.0533 75.7233 58.94 74.93C59.8733 74.09 60.34 72.8767 60.34 71.29V68.21C60.34 66.6233 59.8733 65.4333 58.94 64.64C58.0533 63.8 56.8167 63.38 55.23 63.38H44.03V76.12ZM84.6475 62.33C82.5475 62.33 81.0075 61.8633 80.0275 60.93C79.0942 59.95 78.6275 58.7133 78.6275 57.22V55.68C78.6275 54.1867 79.0942 52.9733 80.0275 52.04C81.0075 51.06 82.5475 50.57 84.6475 50.57C86.7475 50.57 88.2642 51.06 89.1975 52.04C90.1775 52.9733 90.6675 54.1867 90.6675 55.68V57.22C90.6675 58.7133 90.1775 59.95 89.1975 60.93C88.2642 61.8633 86.7475 62.33 84.6475 62.33ZM79.4675 66.25H89.8275V103H79.4675V66.25ZM167.256 103.84C164.456 103.84 161.959 103.397 159.766 102.51C157.572 101.577 155.706 100.293 154.166 98.66C152.672 96.98 151.529 94.95 150.736 92.57C149.989 90.19 149.616 87.53 149.616 84.59C149.616 81.6967 149.989 79.0833 150.736 76.75C151.482 74.37 152.579 72.34 154.026 70.66C155.519 68.98 157.339 67.6967 159.486 66.81C161.632 65.8767 164.082 65.41 166.836 65.41C169.869 65.41 172.459 65.9233 174.606 66.95C176.799 67.9767 178.572 69.3533 179.926 71.08C181.326 72.8067 182.329 74.8133 182.936 77.1C183.589 79.34 183.916 81.6967 183.916 84.17V87.25H160.326V87.81C160.326 90.2367 160.979 92.1733 162.286 93.62C163.592 95.02 165.646 95.72 168.446 95.72C170.592 95.72 172.342 95.3 173.696 94.46C175.049 93.5733 176.309 92.5233 177.476 91.31L182.656 97.75C181.022 99.6633 178.876 101.157 176.216 102.23C173.602 103.303 170.616 103.84 167.256 103.84ZM167.046 73.04C164.946 73.04 163.289 73.74 162.076 75.14C160.909 76.4933 160.326 78.3133 160.326 80.6V81.16H173.206V80.53C173.206 78.29 172.692 76.4933 171.666 75.14C170.686 73.74 169.146 73.04 167.046 73.04ZM202.222 103C198.676 103 196.062 102.137 194.382 100.41C192.749 98.6833 191.932 96.1867 191.932 92.92V51.2H202.292V94.95H206.912V103H202.222Z" fill="black"/>
<rect x="6.36164" y="70.0568" width="92.6123" height="78.548" transform="rotate(-43.4532 6.36164 70.0568)" stroke="url(#paint0_linear_8_12)" stroke-width="9"/>
<path d="M69.3259 124.605L115.726 70.6045L91.7259 20.6045H114.126L130.126 58.2045H131.126L161.526 20.6045H184.726L139.526 73.2045L164.926 124.605H142.326L125.126 85.8045H124.126L92.5259 124.605H69.3259Z" fill="url(#paint1_linear_8_12)"/>
<defs>
<linearGradient id="paint0_linear_8_12" x1="50.8062" y1="69.885" x2="50.8062" y2="157.433" gradientUnits="userSpaceOnUse">
<stop stop-color="#7857FF"/>
<stop offset="1" stop-color="#483499"/>
</linearGradient>
<linearGradient id="paint1_linear_8_12" x1="121.926" y1="2.60452" x2="121.926" y2="95.6045" gradientUnits="userSpaceOnUse">
<stop stop-color="#483499"/>
<stop offset="1" stop-color="#7857FF"/>
</linearGradient>
</defs>
</svg>
