<svg width="130" height="107" viewBox="0 0 130 107" fill="none" xmlns="http://www.w3.org/2000/svg">
<path d="M35.311 86V55.986H49.501C50.9057 55.986 52.167 56.2297 53.285 56.717C54.403 57.1757 55.349 57.8207 56.123 58.652C56.9257 59.4833 57.542 60.501 57.972 61.705C58.402 62.8803 58.617 64.1703 58.617 65.575C58.617 67.0083 58.402 68.3127 57.972 69.488C57.542 70.6633 56.9257 71.6667 56.123 72.498C55.349 73.3293 54.403 73.9887 53.285 74.476C52.167 74.9347 50.9057 75.164 49.501 75.164H41.847V86H35.311ZM41.847 69.488H48.727C49.7017 69.488 50.4613 69.2443 51.006 68.757C51.5793 68.241 51.866 67.4957 51.866 66.521V64.629C51.866 63.6543 51.5793 62.9233 51.006 62.436C50.4613 61.92 49.7017 61.662 48.727 61.662H41.847V69.488ZM64.6478 61.017C63.3578 61.017 62.4118 60.7303 61.8098 60.157C61.2364 59.555 60.9498 58.7953 60.9498 57.878V56.932C60.9498 56.0147 61.2364 55.2693 61.8098 54.696C62.4118 54.094 63.3578 53.793 64.6478 53.793C65.9378 53.793 66.8694 54.094 67.4428 54.696C68.0448 55.2693 68.3458 56.0147 68.3458 56.932V57.878C68.3458 58.7953 68.0448 59.555 67.4428 60.157C66.8694 60.7303 65.9378 61.017 64.6478 61.017ZM61.4658 63.425H67.8298V86H61.4658V63.425ZM106.793 86.516C105.073 86.516 103.539 86.2437 102.192 85.699C100.844 85.1257 99.6978 84.3373 98.7518 83.334C97.8345 82.302 97.1321 81.055 96.6448 79.593C96.1861 78.131 95.9568 76.497 95.9568 74.691C95.9568 72.9137 96.1861 71.3083 96.6448 69.875C97.1035 68.413 97.7771 67.166 98.6658 66.134C99.5831 65.102 100.701 64.3137 102.02 63.769C103.338 63.1957 104.843 62.909 106.535 62.909C108.398 62.909 109.989 63.2243 111.308 63.855C112.655 64.4857 113.744 65.3313 114.576 66.392C115.436 67.4527 116.052 68.6853 116.425 70.09C116.826 71.466 117.027 72.9137 117.027 74.433V76.325H102.536V76.669C102.536 78.1597 102.937 79.3493 103.74 80.238C104.542 81.098 105.804 81.528 107.524 81.528C108.842 81.528 109.917 81.27 110.749 80.754C111.58 80.2093 112.354 79.5643 113.071 78.819L116.253 82.775C115.249 83.9503 113.931 84.8677 112.297 85.527C110.691 86.1863 108.857 86.516 106.793 86.516ZM106.664 67.596C105.374 67.596 104.356 68.026 103.611 68.886C102.894 69.7173 102.536 70.8353 102.536 72.24V72.584H110.448V72.197C110.448 70.821 110.132 69.7173 109.502 68.886C108.9 68.026 107.954 67.596 106.664 67.596ZM126.122 86C123.944 86 122.338 85.4697 121.306 84.409C120.303 83.3483 119.801 81.8147 119.801 79.808V54.18H126.165V81.055H129.003V86H126.122Z" fill="black"/>
<path d="M65.53 85.5L80.61 67.95L72.81 51.7H80.09L85.29 63.92H85.615L95.495 51.7H103.035L88.345 68.795L96.6 85.5H89.255L83.665 72.89H83.34L73.07 85.5H65.53Z" fill="url(#paint0_linear_4_2)"/>
<rect x="5.44975" y="53.5" width="68.5019" height="68.3418" transform="rotate(-45 5.44975 53.5)" stroke="url(#paint1_linear_4_2)" stroke-width="7"/>
<defs>
<linearGradient id="paint0_linear_4_2" x1="82.5" y1="18.5" x2="82.5" y2="89.5" gradientUnits="userSpaceOnUse">
<stop stop-color="#483499"/>
<stop offset="1" stop-color="#7857FF"/>
</linearGradient>
<linearGradient id="paint1_linear_4_2" x1="38.251" y1="53.5" x2="38.251" y2="128.842" gradientUnits="userSpaceOnUse">
<stop stop-color="#7857FF"/>
<stop offset="1" stop-color="#483499"/>
</linearGradient>
</defs>
</svg>
