<svg width="373" height="134" viewBox="0 0 373 134" fill="none" xmlns="http://www.w3.org/2000/svg">
<path d="M33.39 103V54.14H56.49C58.7767 54.14 60.83 54.5367 62.65 55.33C64.47 56.0767 66.01 57.1267 67.27 58.48C68.5767 59.8333 69.58 61.49 70.28 63.45C70.98 65.3633 71.33 67.4633 71.33 69.75C71.33 72.0833 70.98 74.2067 70.28 76.12C69.58 78.0333 68.5767 79.6667 67.27 81.02C66.01 82.3733 64.47 83.4467 62.65 84.24C60.83 84.9867 58.7767 85.36 56.49 85.36H44.03V103H33.39ZM44.03 76.12H55.23C56.8167 76.12 58.0533 75.7233 58.94 74.93C59.8733 74.09 60.34 72.8767 60.34 71.29V68.21C60.34 66.6233 59.8733 65.4333 58.94 64.64C58.0533 63.8 56.8167 63.38 55.23 63.38H44.03V76.12ZM84.6475 62.33C82.5475 62.33 81.0075 61.8633 80.0275 60.93C79.0942 59.95 78.6275 58.7133 78.6275 57.22V55.68C78.6275 54.1867 79.0942 52.9733 80.0275 52.04C81.0075 51.06 82.5475 50.57 84.6475 50.57C86.7475 50.57 88.2642 51.06 89.1975 52.04C90.1775 52.9733 90.6675 54.1867 90.6675 55.68V57.22C90.6675 58.7133 90.1775 59.95 89.1975 60.93C88.2642 61.8633 86.7475 62.33 84.6475 62.33ZM79.4675 66.25H89.8275V103H79.4675V66.25ZM167.256 103.84C164.456 103.84 161.959 103.397 159.766 102.51C157.572 101.577 155.706 100.293 154.166 98.66C152.672 96.98 151.529 94.95 150.736 92.57C149.989 90.19 149.616 87.53 149.616 84.59C149.616 81.6967 149.989 79.0833 150.736 76.75C151.482 74.37 152.579 72.34 154.026 70.66C155.519 68.98 157.339 67.6967 159.486 66.81C161.632 65.8767 164.082 65.41 166.836 65.41C169.869 65.41 172.459 65.9233 174.606 66.95C176.799 67.9767 178.572 69.3533 179.926 71.08C181.326 72.8067 182.329 74.8133 182.936 77.1C183.589 79.34 183.916 81.6967 183.916 84.17V87.25H160.326V87.81C160.326 90.2367 160.979 92.1733 162.286 93.62C163.592 95.02 165.646 95.72 168.446 95.72C170.592 95.72 172.342 95.3 173.696 94.46C175.049 93.5733 176.309 92.5233 177.476 91.31L182.656 97.75C181.022 99.6633 178.876 101.157 176.216 102.23C173.602 103.303 170.616 103.84 167.256 103.84ZM167.046 73.04C164.946 73.04 163.289 73.74 162.076 75.14C160.909 76.4933 160.326 78.3133 160.326 80.6V81.16H173.206V80.53C173.206 78.29 172.692 76.4933 171.666 75.14C170.686 73.74 169.146 73.04 167.046 73.04ZM202.222 103C198.676 103 196.062 102.137 194.382 100.41C192.749 98.6833 191.932 96.1867 191.932 92.92V51.2H202.292V94.95H206.912V103H202.222Z" fill="black"/>
<path d="M250.924 70.94H250.714L247.144 78.08L237.624 95.37L228.314 78.15L224.604 70.45H224.394V103H214.384V54.14H225.654L237.624 77.03H237.764L249.594 54.14H260.934V103H250.924V70.94ZM277.057 62.33C274.957 62.33 273.417 61.8633 272.437 60.93C271.504 59.95 271.037 58.7133 271.037 57.22V55.68C271.037 54.1867 271.504 52.9733 272.437 52.04C273.417 51.06 274.957 50.57 277.057 50.57C279.157 50.57 280.674 51.06 281.607 52.04C282.587 52.9733 283.077 54.1867 283.077 55.68V57.22C283.077 58.7133 282.587 59.95 281.607 60.93C280.674 61.8633 279.157 62.33 277.057 62.33ZM271.877 66.25H282.237V103H271.877V66.25ZM292.607 103V66.25H302.967V72.48H303.387C304.04 70.5667 305.183 68.91 306.817 67.51C308.45 66.11 310.713 65.41 313.607 65.41C317.387 65.41 320.233 66.67 322.147 69.19C324.107 71.71 325.087 75.3033 325.087 79.97V103H314.727V80.81C314.727 78.43 314.353 76.68 313.607 75.56C312.86 74.3933 311.53 73.81 309.617 73.81C308.777 73.81 307.96 73.9267 307.167 74.16C306.373 74.3467 305.65 74.6733 304.997 75.14C304.39 75.6067 303.9 76.19 303.527 76.89C303.153 77.5433 302.967 78.3133 302.967 79.2V103H292.607ZM357.546 96.84H357.196C356.916 97.82 356.472 98.7533 355.866 99.64C355.259 100.48 354.512 101.227 353.626 101.88C352.786 102.487 351.806 102.953 350.686 103.28C349.612 103.653 348.492 103.84 347.326 103.84C342.659 103.84 339.136 102.207 336.756 98.94C334.376 95.6267 333.186 90.8433 333.186 84.59C333.186 78.3367 334.376 73.5767 336.756 70.31C339.136 67.0433 342.659 65.41 347.326 65.41C349.706 65.41 351.806 66.0633 353.626 67.37C355.492 68.6767 356.682 70.3567 357.196 72.41H357.546V51.2H367.906V103H357.546V96.84ZM350.756 95.44C352.716 95.44 354.326 94.9733 355.586 94.04C356.892 93.06 357.546 91.73 357.546 90.05V79.2C357.546 77.52 356.892 76.2133 355.586 75.28C354.326 74.3 352.716 73.81 350.756 73.81C348.796 73.81 347.162 74.51 345.856 75.91C344.596 77.2633 343.966 79.1067 343.966 81.44V87.81C343.966 90.1433 344.596 92.01 345.856 93.41C347.162 94.7633 348.796 95.44 350.756 95.44Z" fill="#606C80"/>
<rect x="6.36164" y="70.0568" width="92.6123" height="78.548" transform="rotate(-43.4532 6.36164 70.0568)" stroke="url(#paint0_linear_7_3)" stroke-width="9"/>
<path d="M69.3259 124.605L115.726 70.6045L91.7259 20.6045H114.126L130.126 58.2045H131.126L161.526 20.6045H184.726L139.526 73.2045L164.926 124.605H142.326L125.126 85.8045H124.126L92.5259 124.605H69.3259Z" fill="url(#paint1_linear_7_3)"/>
<defs>
<linearGradient id="paint0_linear_7_3" x1="50.8062" y1="69.885" x2="50.8062" y2="157.433" gradientUnits="userSpaceOnUse">
<stop stop-color="#7857FF"/>
<stop offset="1" stop-color="#483499"/>
</linearGradient>
<linearGradient id="paint1_linear_7_3" x1="121.926" y1="2.60452" x2="121.926" y2="95.6045" gradientUnits="userSpaceOnUse">
<stop stop-color="#483499"/>
<stop offset="1" stop-color="#7857FF"/>
</linearGradient>
</defs>
</svg>
